#N canvas 868 178 1434 929 10;
#X obj 22 671 dac~;
#X obj 164 630 hsl 500 50 0 127 0 0 empty empty Master_Volume -2 -8
1 10 -66943 -1 -1 0 1;
#X obj 161 689 / 127;
#X obj 22 60 openpanel;
#X obj 22 27 bng 30 250 50 0 empty empty Load 0 -8 1 10 -191407 -1
-1;
#N canvas 0 22 450 278 (subpatch) 0;
#X array array1 212013 float 4;
#X coords 0 1 212012 -1 200 140 1;
#X restore 175 81 graph;
#X msg 22 80 read -resize \$1 array1;
#X obj 22 100 soundfiler;
#X obj 22 359 tabread4~ array1;
#X obj 22 277 phasor~;
#X floatatom 22 200 5 0 0 0 - - -, f 5;
#X obj 22 217 t b f;
#X msg 22 237 1;
#X obj 22 257 /;
#X floatatom 72 322 5 0 0 0 - - -, f 5;
#X obj 22 317 +~ 0;
#X obj 72 339 * 48000;
#X obj 22 297 *~ 48000;
#X obj 22 157 + 400001;
#X obj 22 137 t b f;
#X floatatom 22 120 20 0 0 0 - - -, f 20;
#X obj 178 28 hsl 195 35 0.1 50 0 0 empty empty Seconds -2 -8 1 10
-87872 -1 -1 0 1;
#X obj 175 276 / 127;
#X obj 178 237 hsl 195 35 0.1 20 0 0 empty empty Loop_Volume -2 -8
1 10 -87872 -1 -1 0 1;
#X obj 442 60 openpanel;
#X obj 442 27 bng 30 250 50 0 empty empty Load 0 -8 1 10 -191407 -1
-1;
#N canvas 0 22 450 278 (subpatch) 0;
#X array array2 1.17256e+06 float 4;
#X coords 0 1 1.17256e+06 -1 200 140 1 0 0;
#X restore 595 81 graph;
#X obj 442 100 soundfiler;
#X obj 442 277 phasor~;
#X floatatom 442 200 5 0 0 0 - - -, f 5;
#X obj 442 217 t b f;
#X msg 442 237 1;
#X obj 442 257 /;
#X floatatom 492 322 5 0 0 0 - - -, f 5;
#X obj 442 317 +~ 0;
#X obj 492 339 * 48000;
#X obj 442 297 *~ 48000;
#X obj 442 157 + 400001;
#X obj 442 137 t b f;
#X floatatom 442 120 20 0 0 0 - - -, f 20;
#X obj 598 27 hsl 195 35 0.1 50 0 0 empty empty Seconds -2 -8 1 10
-87872 -1 -1 0 1;
#X obj 442 379 *~;
#X obj 595 276 / 127;
#X obj 598 237 hsl 195 35 0.1 20 0 0 empty empty Loop_Volume -2 -8
1 10 -87872 -1 -1 0 1;
#X obj 862 60 openpanel;
#X obj 862 27 bng 30 250 50 0 empty empty Load 0 -8 1 10 -191407 -1
-1;
#N canvas 0 22 450 278 (subpatch) 0;
#X array array3 306755 float 4;
#X coords 0 1 306754 -1 200 140 1 0 0;
#X restore 1015 81 graph;
#X obj 862 100 soundfiler;
#X obj 862 277 phasor~;
#X floatatom 862 200 5 0 0 0 - - -, f 5;
#X obj 862 217 t b f;
#X msg 862 237 1;
#X obj 862 257 /;
#X floatatom 912 322 5 0 0 0 - - -, f 5;
#X obj 862 317 +~ 0;
#X obj 912 339 * 48000;
#X obj 862 297 *~ 48000;
#X obj 862 157 + 400001;
#X obj 862 137 t b f;
#X floatatom 862 120 20 0 0 0 - - -, f 20;
#X obj 1018 27 hsl 195 35 0.1 50 0 0 empty empty Seconds -2 -8 1 10
-87872 -1 -1 0 1;
#X obj 862 379 *~;
#X obj 1015 276 / 127;
#X obj 1018 237 hsl 195 35 0.1 20 0 0 empty empty Loop_Volume -2 -8
1 10 -87872 -1 -1 0 1;
#X msg 862 80 read -resize \$1 array3;
#X obj 862 359 tabread4~ array3;
#X msg 442 80 read -resize \$1 array2;
#X obj 442 359 tabread4~ array2;
#X obj 22 647 *~;
#X obj 22 380 *~;
#X connect 1 0 2 0;
#X connect 2 0 68 1;
#X connect 3 0 6 0;
#X connect 4 0 3 0;
#X connect 6 0 7 0;
#X connect 7 0 20 0;
#X connect 8 0 69 0;
#X connect 9 0 17 0;
#X connect 10 0 11 0;
#X connect 11 0 12 0;
#X connect 11 1 13 1;
#X connect 12 0 13 0;
#X connect 13 0 9 0;
#X connect 14 0 16 0;
#X connect 15 0 8 0;
#X connect 16 0 15 1;
#X connect 17 0 15 0;
#X connect 18 0 17 1;
#X connect 19 0 18 0;
#X connect 19 1 18 1;
#X connect 20 0 19 0;
#X connect 21 0 10 0;
#X connect 22 0 69 1;
#X connect 23 0 22 0;
#X connect 24 0 66 0;
#X connect 25 0 24 0;
#X connect 27 0 39 0;
#X connect 28 0 36 0;
#X connect 29 0 30 0;
#X connect 30 0 31 0;
#X connect 30 1 32 1;
#X connect 31 0 32 0;
#X connect 32 0 28 0;
#X connect 33 0 35 0;
#X connect 34 0 67 0;
#X connect 35 0 34 1;
#X connect 36 0 34 0;
#X connect 37 0 36 1;
#X connect 38 0 37 0;
#X connect 38 1 37 1;
#X connect 39 0 38 0;
#X connect 40 0 29 0;
#X connect 41 0 68 0;
#X connect 42 0 41 1;
#X connect 43 0 42 0;
#X connect 44 0 64 0;
#X connect 45 0 44 0;
#X connect 47 0 59 0;
#X connect 48 0 56 0;
#X connect 49 0 50 0;
#X connect 50 0 51 0;
#X connect 50 1 52 1;
#X connect 51 0 52 0;
#X connect 52 0 48 0;
#X connect 53 0 55 0;
#X connect 54 0 65 0;
#X connect 55 0 54 1;
#X connect 56 0 54 0;
#X connect 57 0 56 1;
#X connect 58 0 57 0;
#X connect 58 1 57 1;
#X connect 59 0 58 0;
#X connect 60 0 49 0;
#X connect 61 0 68 0;
#X connect 62 0 61 1;
#X connect 63 0 62 0;
#X connect 64 0 47 0;
#X connect 65 0 61 0;
#X connect 66 0 27 0;
#X connect 67 0 41 0;
#X connect 68 0 0 0;
#X connect 68 0 0 1;
#X connect 69 0 68 0;
